<svg xmlns="http://www.w3.org/2000/svg" version="1.1" xmlns:xlink="http://www.w3.org/1999/xlink" xmlns:svgjs="http://svgjs.dev/svgjs" width="2000" height="398" viewBox="0 0 2000 398"><g transform="matrix(1,0,0,1,-1.2121212121212466,-0.3296987584241151)"><svg viewBox="0 0 396 79" data-background-color="#ffffff" preserveAspectRatio="xMidYMid meet" height="398" width="2000" xmlns="http://www.w3.org/2000/svg" xmlns:xlink="http://www.w3.org/1999/xlink"><g id="tight-bounds" transform="matrix(1,0,0,1,0.2400000000000091,0.06544271838066607)"><svg viewBox="0 0 395.52 78.86911456323865" height="78.86911456323865" width="395.52"><g><svg viewBox="0 0 513.0555781757162 102.30642994652408" height="78.86911456323865" width="395.52"><g transform="matrix(1,0,0,1,117.53557817571615,14.139311229946529)"><svg viewBox="0 0 395.52 74.02780748663102" height="74.02780748663102" width="395.52"><g id="textblocktransform"><svg viewBox="0 0 395.52 74.02780748663102" height="74.02780748663102" width="395.52" id="textblock"><g><svg viewBox="0 0 395.52 74.02780748663102" height="74.02780748663102" width="395.52"><g transform="matrix(1,0,0,1,0,0)"><svg width="395.52" viewBox="1.04 -33.33 233.73000000000002 43.75" height="74.02780748663102" data-palette-color="#ffffff"><path d="M9.51 0L5.76 0 5.76-17.71 1.04-17.71 1.04-20.83 5.87-20.83 5.87-27.78 9.41-27.78 9.41-20.83 14.58-20.83 14.58-17.71 9.51-17.71 9.51 0ZM27.88 0.28L27.88 0.28Q25.03 0.28 22.67-1.16 20.31-2.6 18.9-5.03 17.5-7.47 17.5-10.42L17.5-10.42Q17.5-13.37 18.9-15.8 20.31-18.23 22.67-19.67 25.03-21.11 27.88-21.11L27.88-21.11Q30.03-21.11 31.92-20.31 33.82-19.51 35.21-18.09L35.21-18.09 35.21-20.83 38.68-20.83 38.68 0 35.21 0 35.21-2.74Q33.82-1.35 31.92-0.54 30.03 0.28 27.88 0.28ZM28.37-3.13L28.37-3.13Q30.34-3.13 31.96-4.11 33.57-5.1 34.53-6.75 35.48-8.4 35.48-10.42L35.48-10.42Q35.48-12.43 34.53-14.08 33.57-15.73 31.96-16.72 30.34-17.71 28.37-17.71L28.37-17.71Q26.39-17.71 24.77-16.72 23.16-15.73 22.2-14.08 21.25-12.43 21.25-10.42L21.25-10.42Q21.25-8.4 22.2-6.75 23.16-5.1 24.77-4.11 26.39-3.13 28.37-3.13ZM49.09 0L45.34 0 45.34-33.33 49.09-33.33 49.09 0ZM65.69 0.42L65.69 0.42Q62.42 0.42 59.84-1.04 57.25-2.5 55.77-5.02 54.3-7.53 54.3-10.63L54.3-10.63Q54.3-13.58 55.72-15.99 57.15-18.4 59.56-19.83 61.97-21.25 64.89-21.25L64.89-21.25Q67.77-21.25 70.17-19.88 72.56-18.51 73.99-16.18 75.41-13.85 75.41-10.9L75.41-10.9 75.41-9.38 61.8-9.38Q60.9-9.38 59.96-9.44 59.02-9.51 58.12-9.65L58.12-9.65Q58.5-6.88 60.63-5 62.77-3.13 65.72-3.13L65.72-3.13Q67.7-3.13 69.4-4.03 71.1-4.93 72.15-6.42L72.15-6.42 73.19-2.15Q71.69-0.94 69.77-0.26 67.84 0.42 65.69 0.42ZM58.01-12.19L58.01-12.19Q59.89-12.5 61.8-12.5L61.8-12.5 68.71-12.5Q69.47-12.5 70.22-12.45 70.96-12.4 71.73-12.33L71.73-12.33Q71.24-14.76 69.3-16.34 67.35-17.92 64.89-17.92L64.89-17.92Q62.35-17.92 60.44-16.23 58.53-14.55 58.01-12.19ZM84.16 0L80.41 0 80.41-20.83 83.88-20.83 83.88-17.47Q85.02-19.31 86.85-20.28 88.67-21.25 90.79-21.25L90.79-21.25Q93.01-21.25 94.9-20.16 96.8-19.06 97.98-17 99.16-14.93 99.16-11.98L99.16-11.98 99.16 0 95.41 0 95.41-11.46Q95.41-13.92 93.93-15.82 92.46-17.71 89.78-17.71L89.78-17.71Q87.59-17.71 85.88-16.13 84.16-14.55 84.16-11.56L84.16-11.56 84.16 0ZM111.58 0L107.83 0 107.83-17.71 103.11-17.71 103.11-20.83 107.94-20.83 107.94-27.78 111.48-27.78 111.48-20.83 116.65-20.83 116.65-17.71 111.58-17.71 111.58 0ZM124.78 10.42L121.03 10.42 121.03-20.83 124.5-20.83 124.5-18.09Q125.92-19.51 127.8-20.31 129.67-21.11 131.83-21.11L131.83-21.11Q134.71-21.11 137.05-19.67 139.39-18.23 140.8-15.8 142.21-13.37 142.21-10.42L142.21-10.42Q142.21-7.47 140.8-5.03 139.39-2.6 137.05-1.16 134.71 0.28 131.83 0.28L131.83 0.28Q129.78 0.28 127.97-0.45 126.17-1.18 124.78-2.47L124.78-2.47 124.78 10.42ZM131.34-3.13L131.34-3.13Q133.32-3.13 134.93-4.11 136.55-5.1 137.5-6.75 138.46-8.4 138.46-10.42L138.46-10.42Q138.46-12.43 137.5-14.08 136.55-15.73 134.93-16.72 133.32-17.71 131.34-17.71L131.34-17.71Q129.36-17.71 127.75-16.72 126.13-15.73 125.18-14.08 124.22-12.43 124.22-10.42L124.22-10.42Q124.22-8.4 125.18-6.75 126.13-5.1 127.75-4.11 129.36-3.13 131.34-3.13ZM151.16 0L147.41 0 147.41-20.83 150.89-20.83 150.89-17.01Q152-18.85 153.84-19.95 155.68-21.04 158.21-21.04L158.21-21.04 159.15-17.29Q158.49-17.5 157.62-17.5L157.62-17.5Q154.7-17.5 152.93-15.64 151.16-13.78 151.16-10.35L151.16-10.35 151.16 0ZM172.55 0.42L172.55 0.42Q169.53 0.42 167.03-1.04 164.53-2.5 163.05-4.97 161.58-7.43 161.58-10.42L161.58-10.42Q161.58-13.44 163.05-15.89 164.53-18.33 167.03-19.79 169.53-21.25 172.55-21.25L172.55-21.25Q175.61-21.25 178.09-19.79 180.57-18.33 182.05-15.89 183.52-13.44 183.52-10.42L183.52-10.42Q183.52-7.43 182.05-4.97 180.57-2.5 178.09-1.04 175.61 0.42 172.55 0.42ZM172.55-3.13L172.55-3.13Q174.56-3.13 176.2-4.11 177.83-5.1 178.8-6.75 179.77-8.4 179.77-10.42L179.77-10.42Q179.77-12.43 178.8-14.08 177.83-15.73 176.2-16.72 174.56-17.71 172.55-17.71L172.55-17.71Q170.54-17.71 168.9-16.72 167.27-15.73 166.3-14.08 165.33-12.43 165.33-10.42L165.33-10.42Q165.33-8.4 166.3-6.75 167.27-5.1 168.9-4.11 170.54-3.13 172.55-3.13ZM199.53 0.28L199.53 0.28Q197.37 0.28 195.5-0.54 193.62-1.35 192.2-2.74L192.2-2.74 192.2 0 188.73 0 188.73-33.33 192.48-33.33 192.48-18.37Q193.87-19.65 195.67-20.38 197.48-21.11 199.53-21.11L199.53-21.11Q202.41-21.11 204.75-19.67 207.1-18.23 208.5-15.8 209.91-13.37 209.91-10.42L209.91-10.42Q209.91-7.47 208.5-5.03 207.1-2.6 204.75-1.16 202.41 0.28 199.53 0.28ZM199.04-3.13L199.04-3.13Q201.02-3.13 202.63-4.11 204.25-5.1 205.2-6.75 206.16-8.4 206.16-10.42L206.16-10.42Q206.16-12.43 205.2-14.08 204.25-15.73 202.63-16.72 201.02-17.71 199.04-17.71L199.04-17.71Q197.06-17.71 195.45-16.72 193.83-15.73 192.88-14.08 191.92-12.43 191.92-10.42L191.92-10.42Q191.92-8.4 192.88-6.75 193.83-5.1 195.45-4.11 197.06-3.13 199.04-3.13ZM225.04 0.42L225.04 0.42Q221.78 0.42 219.19-1.04 216.61-2.5 215.13-5.02 213.66-7.53 213.66-10.63L213.66-10.63Q213.66-13.58 215.08-15.99 216.5-18.4 218.92-19.83 221.33-21.25 224.25-21.25L224.25-21.25Q227.13-21.25 229.52-19.88 231.92-18.51 233.34-16.18 234.77-13.85 234.77-10.9L234.77-10.9 234.77-9.38 221.16-9.38Q220.25-9.38 219.32-9.44 218.38-9.51 217.48-9.65L217.48-9.65Q217.86-6.88 219.99-5 222.13-3.13 225.08-3.13L225.08-3.13Q227.06-3.13 228.76-4.03 230.46-4.93 231.5-6.42L231.5-6.42 232.54-2.15Q231.05-0.94 229.12-0.26 227.2 0.42 225.04 0.42ZM217.37-12.19L217.37-12.19Q219.25-12.5 221.16-12.5L221.16-12.5 228.07-12.5Q228.83-12.5 229.58-12.45 230.32-12.4 231.09-12.33L231.09-12.33Q230.6-14.76 228.66-16.34 226.71-17.92 224.25-17.92L224.25-17.92Q221.71-17.92 219.8-16.23 217.89-14.55 217.37-12.19Z" opacity="1" transform="matrix(1,0,0,1,0,0)" fill="#000000" class="wordmark-text-0" data-fill-palette-color="primary" id="text-0"></path></svg></g></svg></g></svg></g></svg></g><g><svg viewBox="0 0 100.05938949550224 102.30642994652408" height="102.30642994652408" width="100.05938949550224"><g><svg xmlns="http://www.w3.org/2000/svg" xmlns:xlink="http://www.w3.org/1999/xlink" version="1.1" x="0" y="0" viewBox="12.5 11.2 75.7 77.39999999999999" style="enable-background:new 0 0 100 100;" xml:space="preserve" height="102.30642994652408" width="100.05938949550224" class="icon-icon-0" data-fill-palette-color="accent" id="icon-0"><path d="M45.6 30.1C41.8 30.1 38.7 33.2 38.7 37S41.8 43.9 45.6 43.9 52.5 40.8 52.5 37 49.5 30.1 45.6 30.1" fill="#000000" data-fill-palette-color="accent"></path><path d="M52 46.5H39.2C35.9 46.5 33.2 49.2 33.2 52.5V58.1H58.1V52.5C58.1 49.2 55.4 46.5 52 46.5" fill="#000000" data-fill-palette-color="accent"></path><path d="M45.6 11.2C27.4 11.2 12.5 26 12.5 44.3 12.5 62.5 27.3 77.4 45.6 77.4 51.5 77.4 57.4 75.8 62.6 72.7L63.8 72 79 87C80 88 81.3 88.6 82.8 88.6 84.2 88.6 85.6 88 86.6 87S88.2 84.7 88.2 83.2 87.6 80.5 86.6 79.4L71.7 64.7 73 62.8C76.7 57.3 78.7 50.9 78.7 44.3 78.7 26 63.9 11.2 45.6 11.2M45.6 68.3C32.3 68.3 21.5 57.5 21.5 44.2S32.3 20.1 45.6 20.1 69.7 30.9 69.7 44.2 58.9 68.3 45.6 68.3" fill="#000000" data-fill-palette-color="accent"></path></svg></g></svg></g></svg></g><defs></defs></svg><rect width="395.52" height="78.86911456323865" fill="none" stroke="none" visibility="hidden"></rect></g></svg></g></svg>